# xmcd
#
# Track frame offsets: 
#        150
#        20311
#        43113
#        76892
#        95402
#        119970
#        135250
#        154552
#        178645
#        196428
#        221277
#        250546
#
# Disc length: 3428 seconds
#
# Revision: 0
# Processed by: cddbd v1.4PL0 Copyright (c) Steve Scherf et al.
# Submitted via: ExactAudioCopy v0.90b4
#
DISCID=950d620c
DTITLE=Bill - Sims
DYEAR=1900
DGENRE=Blues
TTITLE0=Time Out
TTITLE1=I Want To See You Again
TTITLE2=Smoky City
TTITLE3=Dark Moon Risin'
TTITLE4=As The Years Go Passin' By
TTITLE5=When Do I Get To Be Called A Man
TTITLE6=Just Like You
TTITLE7=Black Mare
TTITLE8=Blues For Breakfast
TTITLE9=Mr. Airplane Man
TTITLE10=Man Eater
TTITLE11=Nobody's Faut But Mine
EXTD=
EXTT0=
EXTT1=
EXTT2=
EXTT3=
EXTT4=
EXTT5=
EXTT6=
EXTT7=
EXTT8=
EXTT9=
EXTT10=
EXTT11=
PLAYORDER=
